<?xml version="1.0" encoding="UTF-8"?>
<svg width="98px" height="56px" viewBox="0 0 98 56" version="1.1" xmlns="http://www.w3.org/2000/svg" xmlns:xlink="http://www.w3.org/1999/xlink">
    <!-- Generator: Sketch 46.2 (44496) - http://www.bohemiancoding.com/sketch -->
    <title>Group</title>
    <desc>Created with Sketch.</desc>
    <defs></defs>
    <g id="Welcome" stroke="none" stroke-width="1" fill="none" fill-rule="evenodd" stroke-linecap="round">
        <g id="Mobile-Portrait" transform="translate(-17.000000, -243.000000)" stroke="#663300" stroke-width="3">
            <g id="Group-2" transform="translate(18.000000, 243.000000)">
                <g id="Group" transform="translate(0.000000, 2.000000)">
                    <path d="M81.2,37.6 C81.2,34.6 81.2,31.7 81.2,28.7 C81.5,25.3 84.1,22.5 87.5,22.2 C91.2,21.8 94.2,24.5 95.1,27.4 C95.2,27.8 96.2,31.2 93.8,33.9 C92.2,35.7 89.7,36.5 87.2,35.9 C87.2,53.2 87.2,29.4 87.2,46.7 L8.9,46.7 C8.9,43.1 8.8,39.6 8.8,36 C8.6,36 4.8,36.9 2.3,34.2 C0.2,32 0.2,28.8 1.3,26.6 C2.5,23.9 5.5,22.1 8.6,22.4 C11.5,22.7 14,24.8 14.9,27.6 C14.9,30.8 14.9,34 14.9,37.3" id="Shape"></path>
                    <rect id="Rectangle-path" x="14.4" y="46.7" width="10.7" height="5.2"></rect>
                    <rect id="Rectangle-path" x="72.2" y="46.7" width="10.7" height="5.2"></rect>
                    <path d="M8.8,16.3 L8.8,16.3 C8.8,7.3 14.9,0 22.5,0 L73.8,0 C81.3,0 87.5,7.3 87.5,16.3 L87.5,16.3" id="Shape"></path>
                    <path d="M21.9,37.6 L74.3,37.6" id="Shape"></path>
                    <path d="M48.1,6 L48.1,31.6" id="Shape"></path>
                </g>
            </g>
        </g>
    </g>
</svg>